<svg width="50" height="50" viewBox="0 0 50 50" fill="none" xmlns="http://www.w3.org/2000/svg">
<path d="M13.2812 41.2109H7.32422C6.51455 41.2109 5.85938 40.5558 5.85938 39.7461C5.85938 38.9364 6.51455 38.2812 7.32422 38.2812H13.2812C14.0909 38.2812 14.7461 38.9364 14.7461 39.7461C14.7461 40.5558 14.0909 41.2109 13.2812 41.2109Z" fill="#CFD7E6"/>
<path d="M16.2109 38.2812C15.4013 38.2812 14.7461 37.6261 14.7461 36.8164V25C14.7461 24.1903 15.4013 23.5352 16.2109 23.5352C17.0206 23.5352 17.6758 24.1903 17.6758 25V36.8164C17.6758 37.6261 17.0206 38.2812 16.2109 38.2812Z" fill="#CFD7E6"/>
<path d="M46.2517 28.0954C45.9257 27.7706 40.1607 22.0267 40.4689 22.3337L11.0446 7.40234L6.89454 11.5524C5.16593 13.2518 5.16593 16.035 6.89454 17.7341L25.5567 36.3963C27.2564 38.1547 30.1113 38.0793 31.7383 36.3963L41.0741 27.0604L44.1803 30.1668C44.7525 30.739 45.6794 30.7391 46.2517 30.1668C46.8239 29.5946 46.8239 28.6677 46.2517 28.0954Z" fill="#E1E6F0"/>
<path d="M6.89454 17.7341L25.5567 36.3963C27.2564 38.1547 30.1113 38.0794 31.7383 36.3963L35.8885 32.2461L11.0447 7.40234L6.89454 11.5524C5.16593 13.2518 5.16593 16.035 6.89454 17.7341Z" fill="#F3F5F9"/>
<path d="M27.1896 22.3338H40.4689L37.5392 19.4041L21.3672 3.2614C19.6679 1.53298 16.8847 1.53298 15.1856 3.2614L11.0446 7.40242L25.1179 21.4757C25.6674 22.0252 26.4126 22.3338 27.1896 22.3338Z" fill="#334466"/>
<path d="M28.6405 30.6079C29.4495 30.6079 30.1054 29.9521 30.1054 29.1431C30.1054 28.3341 29.4495 27.6782 28.6405 27.6782C27.8315 27.6782 27.1757 28.3341 27.1757 29.1431C27.1757 29.9521 27.8315 30.6079 28.6405 30.6079Z" fill="#FF5959"/>
<path d="M4.39453 50H1.46484C0.655176 50 0 49.3448 0 48.5352V30.957C0 30.1474 0.655176 29.4922 1.46484 29.4922H4.39453C6.81777 29.4922 8.78906 31.4635 8.78906 33.8867V45.6055C8.78906 48.0287 6.81777 50 4.39453 50Z" fill="#334466"/>
<path d="M40.2525 14.6484C41.0615 14.6484 41.7174 13.9926 41.7174 13.1836C41.7174 12.3746 41.0615 11.7188 40.2525 11.7188C39.4435 11.7188 38.7877 12.3746 38.7877 13.1836C38.7877 13.9926 39.4435 14.6484 40.2525 14.6484Z" fill="#FF3131"/>
<path d="M47.4995 5.93662C43.6199 2.05703 36.8852 2.05703 33.0056 5.93662C32.4334 6.50879 31.5064 6.50879 30.9342 5.93662C30.362 5.36445 30.362 4.4374 30.9342 3.86523C33.4261 1.37324 36.7363 0 40.2526 0C43.7688 0 47.0789 1.37324 49.5709 3.86523C50.1431 4.4374 50.1431 5.36445 49.5709 5.93662C48.9986 6.50879 48.0717 6.50889 47.4995 5.93662Z" fill="#FF3131"/>
<path d="M43.3568 10.0766C41.703 8.41721 38.802 8.41721 37.1484 10.0766C36.5762 10.6488 35.6463 10.6459 35.0741 10.0794C34.502 9.50725 34.502 8.5802 35.0713 8.0052C37.8351 5.24143 42.6701 5.24143 45.4339 8.0052C46.0032 8.5803 46.0032 9.50725 45.4311 10.0794C44.8514 10.6532 43.9233 10.6431 43.3568 10.0766Z" fill="#FF3131"/>
</svg>
