<svg width="40" height="40" viewBox="0 0 40 40" fill="none" xmlns="http://www.w3.org/2000/svg">
<path d="M36.6667 15.4167H30C29.3096 15.4167 28.75 15.9764 28.75 16.6667V36.6667C28.75 37.3571 29.3096 37.9167 30 37.9167H36.6667C37.357 37.9167 37.9167 37.3571 37.9167 36.6667V16.6667C37.9167 15.9764 37.357 15.4167 36.6667 15.4167Z" fill="#376CFB"/>
<path d="M23.3334 22.0835H16.6667C15.9763 22.0835 15.4167 22.6431 15.4167 23.3335V36.6668C15.4167 37.3572 15.9763 37.9168 16.6667 37.9168H23.3334C24.0237 37.9168 24.5834 37.3572 24.5834 36.6668V23.3335C24.5834 22.6431 24.0237 22.0835 23.3334 22.0835Z" fill="#376CFB"/>
<path d="M10 25.4167H3.33334C2.64299 25.4167 2.08334 25.9764 2.08334 26.6667V36.6667C2.08334 37.3571 2.64299 37.9167 3.33334 37.9167H10C10.6904 37.9167 11.25 37.3571 11.25 36.6667V26.6667C11.25 25.9764 10.6904 25.4167 10 25.4167Z" fill="#4294FF"/>
<path d="M5.00001 23.3334C4.60538 23.3287 4.22524 23.184 3.92726 22.9253C3.62927 22.6665 3.43279 22.3104 3.37278 21.9203C3.31277 21.5302 3.39312 21.1315 3.59955 20.7951C3.80597 20.4588 4.12506 20.2066 4.50001 20.0834C9.61174 18.466 14.5258 16.2801 19.15 13.5667C24.5104 10.4157 29.4403 6.58384 33.8167 2.16675C33.971 2.00927 34.1551 1.88398 34.3582 1.79816C34.5614 1.71233 34.7795 1.66766 35 1.66675C35.4372 1.66859 35.8563 1.84217 36.1667 2.15008C36.4771 2.46235 36.6513 2.88477 36.6513 3.32508C36.6513 3.76539 36.4771 4.18781 36.1667 4.50008C31.5963 9.12773 26.4417 13.1394 20.8333 16.4334C15.9993 19.3053 10.8554 21.6201 5.50001 23.3334C5.3343 23.3586 5.16573 23.3586 5.00001 23.3334Z" fill="#2945E8"/>
<path d="M35 11.6667C34.558 11.6667 34.1341 11.4912 33.8215 11.1786C33.5089 10.866 33.3334 10.4421 33.3334 10.0001V5.00008H28.3334C27.8913 5.00008 27.4674 4.82449 27.1548 4.51193C26.8423 4.19937 26.6667 3.77544 26.6667 3.33341C26.6667 2.89139 26.8423 2.46746 27.1548 2.1549C27.4674 1.84234 27.8913 1.66675 28.3334 1.66675H35C35.442 1.66675 35.866 1.84234 36.1785 2.1549C36.4911 2.46746 36.6667 2.89139 36.6667 3.33341V10.0001C36.6667 10.4421 36.4911 10.866 36.1785 11.1786C35.866 11.4912 35.442 11.6667 35 11.6667Z" fill="#2945E8"/>
</svg>
