<svg width="50" height="50" viewBox="0 0 50 50" fill="none" xmlns="http://www.w3.org/2000/svg">
<g clip-path="url(#clip0_53_318)">
<path d="M44.1384 33.3897C42.7944 37.0319 40.762 40.1989 38.0966 42.8017C35.0628 45.7642 31.0902 48.1182 26.289 49.7975C26.1314 49.8524 25.967 49.8974 25.8019 49.9306C25.5837 49.9737 25.3616 49.997 25.1415 50H25.0984C24.8638 50 24.6281 49.9764 24.3942 49.9306C24.2291 49.8974 24.0669 49.8524 23.9101 49.7986C19.1032 48.122 15.1257 45.7691 12.0888 42.8066C9.42229 40.2039 7.3902 37.0388 6.04819 33.3965C3.60793 26.7742 3.74678 19.479 3.85855 13.6165L3.86046 13.5265C3.88297 13.0424 3.89746 12.5339 3.90547 11.9724C3.94629 9.21553 6.13822 6.93472 8.89548 6.78099C14.6442 6.46017 19.0914 4.58524 22.8912 0.881551L22.9244 0.851033C23.5554 0.272343 24.3504 -0.0114708 25.1415 0.000354776C25.9045 0.010273 26.6644 0.293705 27.2728 0.851033L27.3052 0.881551C31.1058 4.58524 35.553 6.46017 41.3017 6.78099C44.059 6.93472 46.2509 9.21553 46.2918 11.9724C46.2998 12.5378 46.3143 13.0455 46.3368 13.5265L46.3379 13.5647C46.4493 19.4382 46.5874 26.7479 44.1384 33.3897Z" fill="#00DD80"/>
<path d="M44.1384 33.3896C42.7945 37.0318 40.762 40.1988 38.0966 42.8016C35.0628 45.7641 31.0902 48.1181 26.289 49.7973C26.1315 49.8523 25.967 49.8973 25.8019 49.9305C25.5837 49.9736 25.3616 49.9969 25.1415 49.9999V0.000244141C25.9045 0.0101624 26.6644 0.293595 27.2728 0.850922L27.3052 0.88144C31.1058 4.58513 35.553 6.46006 41.3018 6.78087C44.059 6.93461 46.2509 9.21542 46.2918 11.9723C46.2998 12.5376 46.3143 13.0454 46.3368 13.5264L46.3379 13.5646C46.4493 19.4381 46.5874 26.7478 44.1384 33.3896Z" fill="#00AA63"/>
<path d="M37.5588 24.9999C37.5588 31.8561 31.992 37.437 25.1415 37.4614H25.0977C18.227 37.4614 12.6362 31.871 12.6362 24.9999C12.6362 18.1293 18.227 12.5388 25.0977 12.5388H25.1415C31.992 12.5632 37.5588 18.1441 37.5588 24.9999Z" fill="white"/>
<path d="M37.5588 24.9999C37.5588 31.8561 31.992 37.437 25.1415 37.4614V12.5388C31.992 12.5632 37.5588 18.1441 37.5588 24.9999Z" fill="#E1EBF0"/>
<path d="M30.7537 23.2056L25.1415 28.8186L23.9288 30.0313C23.6423 30.3177 23.2666 30.4608 22.8912 30.4608C22.5155 30.4608 22.1401 30.3177 21.8532 30.0313L19.2459 27.4228C18.6729 26.8498 18.6729 25.9217 19.2459 25.3483C19.8181 24.7754 20.7474 24.7754 21.3203 25.3483L22.8912 26.9192L28.6793 21.1312C29.2522 20.5578 30.1815 20.5578 30.7537 21.1312C31.3267 21.7042 31.3267 22.6334 30.7537 23.2056Z" fill="#B4D2D7"/>
<path d="M30.7537 23.2056L25.1415 28.8186V24.6686L28.6793 21.1312C29.2523 20.5578 30.1815 20.5578 30.7537 21.1312C31.3267 21.7042 31.3267 22.6334 30.7537 23.2056Z" fill="#6FA5AA"/>
</g>
<defs>
<clipPath id="clip0_53_318">
<rect width="50" height="50" fill="white"/>
</clipPath>
</defs>
</svg>
