<svg width="50" height="50" viewBox="0 0 50 50" fill="none" xmlns="http://www.w3.org/2000/svg">
<g clip-path="url(#clip0_53_353)">
<path d="M42.9216 42.9271C52.3473 33.5014 52.3473 18.2193 42.9216 8.79362C33.4959 -0.632081 18.2138 -0.632083 8.78811 8.79361C-0.637587 18.2193 -0.637587 33.5014 8.78811 42.9271C18.2138 52.3528 33.4959 52.3528 42.9216 42.9271Z" fill="#FF6C6C"/>
<path d="M25.8602 1.7207V49.9999C39.1709 49.9999 49.9999 39.1709 49.9999 25.8603C49.9999 12.5496 39.1709 1.7207 25.8602 1.7207Z" fill="#E63950"/>
<path d="M28.4939 41.6785C37.2297 40.2166 43.1264 31.9498 41.6645 23.2139C40.2026 14.4781 31.9358 8.58136 23.2 10.0432C14.4642 11.5051 8.56753 19.772 10.0294 28.5078C11.4913 37.2437 19.7581 43.1404 28.4939 41.6785Z" fill="#F0F7FF"/>
<path d="M25.8602 9.81812V41.9025C34.7059 41.9025 41.9025 34.7059 41.9025 25.8602C41.9025 17.0147 34.7059 9.81812 25.8602 9.81812Z" fill="#DFE7F4"/>
<path d="M32.9419 29.4759C34.9339 25.5664 33.3795 20.7823 29.4701 18.7903C25.5606 16.7982 20.7765 18.3526 18.7844 22.2621C16.7924 26.1716 18.3468 30.9557 22.2563 32.9477C26.1657 34.9397 30.9499 33.3854 32.9419 29.4759Z" fill="#FF6C6C"/>
<path d="M25.8602 17.9155V33.8049C30.241 33.8049 33.805 30.241 33.805 25.8602C33.805 21.4794 30.241 17.9155 25.8602 17.9155Z" fill="#E63950"/>
<path d="M17.8804 7.52281L10.7873 0.429712C10.4344 0.0766168 9.9259 -0.0726004 9.43815 0.0335922C8.95041 0.139785 8.55008 0.486818 8.37574 0.954613L6.92395 4.84981L7.33865 7.33878L4.84967 6.92408L0.954574 8.37578C0.486779 8.55012 0.139746 8.95045 0.0335536 9.43819C-0.0725413 9.92593 0.0765782 10.4343 0.429674 10.7873L7.52277 17.8804C7.80028 18.158 8.1744 18.3101 8.55986 18.3101C8.64679 18.3101 8.73431 18.3023 8.82153 18.2866L15.8337 17.0154C16.4352 16.9063 16.9062 16.4354 17.0153 15.8338L18.2865 8.82167C18.3722 8.3484 18.2206 7.863 17.8804 7.52281Z" fill="#29376D"/>
<path d="M26.8974 24.823L6.92395 4.84961L6.36081 6.36075L4.84967 6.92389L24.8232 26.8974C25.1096 27.1838 25.485 27.327 25.8603 27.327C26.2357 27.327 26.611 27.1837 26.8974 26.8974C27.4703 26.3246 27.4703 25.3958 26.8974 24.823Z" fill="#47568C"/>
</g>
<defs>
<clipPath id="clip0_53_353">
<rect width="50" height="50" fill="white"/>
</clipPath>
</defs>
</svg>
