<svg width="50" height="50" viewBox="0 0 50 50" fill="none" xmlns="http://www.w3.org/2000/svg">
<path fill-rule="evenodd" clip-rule="evenodd" d="M25.4833 49.004H20.123C19.6836 49.004 19.3322 48.6526 19.3322 48.2425V43.9367C16.6667 43.0579 14.2355 41.652 12.0972 39.7188L8.31868 41.9742C8.14293 42.0913 7.90861 42.1206 7.70357 42.062C7.49853 42.0035 7.35207 41.857 7.23491 41.6813L1.9625 32.396C1.87463 32.2202 1.84534 32.0152 1.87463 31.8101C1.93321 31.6051 2.07967 31.4294 2.25541 31.3415L6.03397 29.2032C5.71177 27.8558 5.56531 26.4206 5.56531 24.9853C5.56531 23.55 5.71177 22.1441 6.03397 20.7967L2.25541 18.6584C2.07967 18.5412 1.93321 18.3655 1.87463 18.1898C1.81605 17.9847 1.84534 17.7797 1.9625 17.5746L7.23491 8.31863C7.35207 8.11359 7.49853 7.99643 7.70357 7.93785C7.90861 7.87927 8.14293 7.90856 8.31868 8.02572L12.0972 10.2518C14.2355 8.34792 16.6667 6.94195 19.3322 6.06321V1.75741C19.3322 1.31805 19.6836 0.966553 20.123 0.966553H25.4833C25.9227 0.966553 26.2742 1.31805 26.2742 1.75741V14.2647C26.2742 13.8254 25.9227 13.4739 25.4833 13.4739C19.0978 13.4739 13.884 18.6291 13.884 24.9853C13.884 31.3415 19.0978 36.526 25.4833 36.526C25.9227 36.526 26.2742 36.1745 26.2742 35.7352V48.2425C26.2742 48.6526 25.9227 49.004 25.4833 49.004Z" fill="#4294FF"/>
<path fill-rule="evenodd" clip-rule="evenodd" d="M34.1828 16.9011H25.4833C25.0732 16.9011 24.7217 16.5496 24.7217 16.1102C24.7217 15.6708 25.0732 15.3193 25.4833 15.3193H34.1828C35.2373 15.3193 36.0281 14.5285 36.0281 13.474V6.15121C36.0281 5.71185 36.3796 5.36035 36.819 5.36035C37.2584 5.36035 37.6098 5.71185 37.6098 6.15121V13.474C37.6098 15.3486 36.0574 16.9011 34.1828 16.9011Z" fill="#FFA721"/>
<path fill-rule="evenodd" clip-rule="evenodd" d="M35.6473 21.3827H25.4833C25.0732 21.3827 24.7217 21.0312 24.7217 20.5918C24.7217 20.1817 25.0732 19.8303 25.4833 19.8303H35.4423L42.2671 15.8174C42.6479 15.6123 43.1166 15.7295 43.3509 16.1103C43.556 16.4911 43.4388 16.9597 43.058 17.1648L36.0281 21.2655C35.911 21.3534 35.7938 21.3827 35.6473 21.3827Z" fill="#FFA721"/>
<path fill-rule="evenodd" clip-rule="evenodd" d="M42.0035 25.7763H25.4833C25.0732 25.7763 24.7217 25.4248 24.7217 24.9854C24.7217 24.5754 25.0732 24.2239 25.4833 24.2239H42.0035C42.4136 24.2239 42.7651 24.5754 42.7651 24.9854C42.7651 25.4248 42.4136 25.7763 42.0035 25.7763Z" fill="#FFA721"/>
<path fill-rule="evenodd" clip-rule="evenodd" d="M36.819 44.6105C36.3796 44.6105 36.0281 44.2591 36.0281 43.849V36.5262C36.0281 35.4717 35.2373 34.6516 34.1828 34.6516H25.4833C25.0732 34.6516 24.7217 34.3001 24.7217 33.89C24.7217 33.4506 25.0732 33.0991 25.4833 33.0991H34.1828C36.0574 33.0991 37.6098 34.6223 37.6098 36.5262V43.849C37.6098 44.2591 37.2584 44.6105 36.819 44.6105Z" fill="#FFA721"/>
<path fill-rule="evenodd" clip-rule="evenodd" d="M42.6772 34.2706C42.5308 34.2706 42.3843 34.2413 42.2671 34.1535L35.4423 30.1699H25.4833C25.0732 30.1699 24.7217 29.8184 24.7217 29.379C24.7217 28.9689 25.0732 28.6174 25.4833 28.6174H35.6473C35.7938 28.6174 35.911 28.6467 36.0281 28.7053L43.058 32.8061C43.4388 33.0404 43.556 33.5091 43.3509 33.8898C43.2045 34.1242 42.9408 34.2706 42.6772 34.2706Z" fill="#FFA721"/>
<path fill-rule="evenodd" clip-rule="evenodd" d="M36.819 6.942C34.9443 6.942 33.3919 5.38957 33.3919 3.51494C33.3919 1.55243 34.915 0 36.819 0C38.8108 0 40.3339 1.52314 40.3339 3.51494C40.3339 5.41886 38.7815 6.942 36.819 6.942Z" fill="#FF3131"/>
<path fill-rule="evenodd" clip-rule="evenodd" d="M44.7276 18.1605C42.7358 18.1605 41.2126 16.6667 41.2126 14.7334C41.2126 12.8002 42.7651 11.2185 44.7276 11.2185C46.6022 11.2185 48.1254 12.8002 48.1254 14.7334C48.1547 16.6374 46.6022 18.1605 44.7276 18.1605Z" fill="#FF3131"/>
<path fill-rule="evenodd" clip-rule="evenodd" d="M44.7276 28.5003C42.7651 28.5003 41.2126 26.9479 41.2126 24.9854C41.2126 23.0522 42.7651 21.4705 44.7276 21.4705C46.6022 21.4705 48.1254 23.0522 48.1254 24.9854C48.1254 26.9479 46.6022 28.5003 44.7276 28.5003Z" fill="#FF3131"/>
<path fill-rule="evenodd" clip-rule="evenodd" d="M36.819 50.0001C34.915 50.0001 33.3919 48.4477 33.3919 46.4852C33.3919 44.5812 34.9443 43.0581 36.819 43.0581C38.7815 43.0581 40.3339 44.552 40.3339 46.4852C40.3339 48.477 38.8108 50.0001 36.819 50.0001Z" fill="#FF3131"/>
<path fill-rule="evenodd" clip-rule="evenodd" d="M44.7276 38.7523C42.7651 38.7523 41.2126 37.1999 41.2126 35.2374C41.2126 33.3334 42.7358 31.8396 44.7276 31.8396C46.6022 31.8396 48.1254 33.3627 48.1254 35.2374C48.1547 37.1999 46.6022 38.7523 44.7276 38.7523Z" fill="#FF3131"/>
<path fill-rule="evenodd" clip-rule="evenodd" d="M25.4833 36.526C19.0978 36.526 13.884 31.3415 13.884 24.9853C13.884 18.6291 19.0978 13.4739 25.4833 13.4739C25.9227 13.4739 26.2742 13.8254 26.2742 14.2647V35.7352C26.2742 36.1745 25.9227 36.526 25.4833 36.526Z" fill="white"/>
</svg>
