<svg width="50" height="50" viewBox="0 0 50 50" fill="none" xmlns="http://www.w3.org/2000/svg">
<g clip-path="url(#clip0_53_328)">
<path d="M25 50C38.8071 50 50 38.8071 50 25C50 11.1929 38.8071 0 25 0C11.1929 0 0 11.1929 0 25C0 38.8071 11.1929 50 25 50Z" fill="#FBB13C"/>
<path d="M35.9307 23.9998C34.4414 35.0349 38.0059 34.4177 27 35.9998L16.0557 37.2118C14.3862 35.9869 12.9858 34.4326 11.941 32.6448C10.8963 30.8571 10.2295 28.874 9.98177 26.8183C9.73408 24.7625 9.91079 22.6778 10.501 20.6931C11.0912 18.7084 12.0823 16.8659 13.413 15.2795C14.7438 13.6931 16.3858 12.3967 18.2377 11.4703C20.0895 10.5439 22.1117 10.0073 24.1792 9.89366C26.2467 9.78003 28.3155 10.0918 30.2577 10.8097C32.1999 11.5276 33.9741 12.6363 35.4707 14.0673C35.627 14.2177 35.7803 14.371 35.9307 14.5272V23.9998Z" fill="#E08B1B"/>
<path d="M25 9.86328C22.0062 9.86328 19.0797 10.751 16.5905 12.4143C14.1013 14.0775 12.1612 16.4416 11.0155 19.2074C9.86984 21.9733 9.57008 25.0168 10.1541 27.953C10.7382 30.8893 12.1798 33.5864 14.2967 35.7033C16.4136 37.8202 19.1107 39.2618 22.047 39.8459C24.9832 40.4299 28.0267 40.1302 30.7926 38.9845C33.5585 37.8388 35.9225 35.8987 37.5857 33.4095C39.249 30.9203 40.1367 27.9938 40.1367 25C40.1367 20.9855 38.542 17.1354 35.7033 14.2967C32.8646 11.458 29.0145 9.86328 25 9.86328ZM30.3877 26.457L23.4043 30.4883C23.1487 30.6361 22.8586 30.714 22.5633 30.7141C22.268 30.7143 21.9778 30.6366 21.7221 30.4891C21.4663 30.3415 21.2539 30.1291 21.1062 29.8734C20.9585 29.6177 20.8808 29.3275 20.8809 29.0322V20.9678C20.8808 20.6725 20.9585 20.3824 21.1062 20.1266C21.2539 19.8709 21.4663 19.6585 21.7221 19.5109C21.9778 19.3634 22.268 19.2857 22.5633 19.2859C22.8586 19.286 23.1487 19.3639 23.4043 19.5117L30.3877 23.543C30.6434 23.6907 30.8558 23.9031 31.0034 24.1588C31.151 24.4146 31.2287 24.7047 31.2287 25C31.2287 25.2953 31.151 25.5854 31.0034 25.8412C30.8558 26.0969 30.6434 26.3093 30.3877 26.457Z" fill="white"/>
</g>
<defs>
<clipPath id="clip0_53_328">
<rect width="50" height="50" fill="white"/>
</clipPath>
</defs>
</svg>
