<svg width="18" height="18" viewBox="0 0 18 18" fill="none" xmlns="http://www.w3.org/2000/svg">
<path d="M2.38667 18H14.9467C16.2633 18 17.3333 16.93 17.3333 15.6133V3.71998C17.3333 2.40332 16.2633 1.33331 14.9467 1.33331H14V0.666654C14 0.299983 13.7 0 13.3333 0C12.9666 0 12.6667 0.299983 12.6667 0.666654V1.33331H4.66669V0.666654C4.66669 0.299983 4.36665 0 3.99998 0C3.63331 0 3.33333 0.299983 3.33333 0.666654V1.33331H2.38667C1.07001 1.33331 0 2.40332 0 3.71998V15.6133C0 16.93 1.07001 18 2.38667 18ZM1.33336 3.71998C1.33336 3.14 1.80669 2.66667 2.38667 2.66667H3.33333V3.33333C3.33333 3.7 3.63331 3.99998 3.99998 3.99998C4.36665 3.99998 4.66664 3.7 4.66664 3.33333V2.66667H12.6667V3.33333C12.6667 3.7 12.9666 3.99998 13.3333 3.99998C13.7 3.99998 14 3.7 14 3.33333V2.66667H14.9466C15.5266 2.66667 15.9999 3.14 15.9999 3.71998V5.66667H1.33336V3.71998ZM1.33336 6.99998H16V15.6133C16 16.1933 15.5267 16.6666 14.9467 16.6666H2.38667C1.80669 16.6666 1.33336 16.1933 1.33336 15.6133V6.99998Z" fill="url(#paint0_linear_53_452)"/>
<defs>
<linearGradient id="paint0_linear_53_452" x1="0" y1="0" x2="20.7705" y2="10.278" gradientUnits="userSpaceOnUse">
<stop stop-color="#02B9CA"/>
<stop offset="1" stop-color="#0CC067"/>
</linearGradient>
</defs>
</svg>
