<svg width="28" height="28" viewBox="0 0 28 28" fill="none" xmlns="http://www.w3.org/2000/svg">
<g clip-path="url(#clip0_53_123)">
<g clip-path="url(#clip1_53_123)">
<g clip-path="url(#clip2_53_123)">
<path d="M10.1659 23.2409C10.1696 21.1316 14.0168 14.9333 14.0168 14.9333C14.0168 14.9333 17.8062 21.1447 17.8034 23.2549C17.8024 23.7564 17.7028 24.2528 17.51 24.7158C17.3172 25.1787 17.0352 25.5992 16.6799 25.9531C16.3247 26.3071 15.9032 26.5876 15.4395 26.7787C14.9759 26.9697 14.4791 27.0676 13.9776 27.0667C13.4761 27.0657 12.9797 26.9661 12.5168 26.7733C12.0538 26.5805 11.6334 26.2985 11.2794 25.9432C10.9255 25.588 10.645 25.1665 10.4539 24.7028C10.2628 24.2392 10.165 23.7424 10.1659 23.2409ZM4.75909 10.1659C6.86842 10.1696 13.0658 14.0168 13.0658 14.0168C13.0658 14.0168 6.85536 17.8071 4.74509 17.8033C4.24361 17.8024 3.74721 17.7027 3.28426 17.51C2.8213 17.3172 2.40084 17.0352 2.04689 16.6799C1.69294 16.3247 1.41242 15.9032 1.22136 15.4395C1.0303 14.9758 0.932437 14.4791 0.933356 13.9776C0.934275 13.4761 1.03396 12.9797 1.22672 12.5168C1.41948 12.0538 1.70153 11.6334 2.05679 11.2794C2.41204 10.9254 2.83353 10.6449 3.29719 10.4539C3.76085 10.2628 4.25761 10.1649 4.75909 10.1659ZM17.8342 4.75907C17.8304 6.8684 13.9832 13.0657 13.9832 13.0657C13.9832 13.0657 10.193 6.85533 10.1967 4.74507C10.1975 4.24358 10.2972 3.74718 10.4899 3.2842C10.6826 2.82122 10.9646 2.40072 11.3198 2.04673C11.675 1.69273 12.0965 1.41217 12.5601 1.22105C13.0237 1.02993 13.5205 0.932009 14.022 0.932867C14.5234 0.933725 15.0198 1.03335 15.4828 1.22605C15.9458 1.41875 16.3663 1.70076 16.7203 2.05597C17.0743 2.41118 17.3549 2.83263 17.546 3.29627C17.7371 3.75991 17.835 4.25758 17.8342 4.75907ZM23.2419 17.8341C21.1326 17.8304 14.9334 13.9832 14.9334 13.9832C14.9334 13.9832 21.1447 10.1929 23.255 10.1967C23.7564 10.1975 24.2528 10.2971 24.7158 10.4899C25.1788 10.6826 25.5993 10.9646 25.9533 11.3198C26.3073 11.675 26.5879 12.0964 26.779 12.5601C26.9701 13.0237 27.068 13.5205 27.0672 14.0219C27.0663 14.5234 26.9667 15.0198 26.774 15.4828C26.5813 15.9458 26.2993 16.3663 25.9441 16.7203C25.5888 17.0743 25.1674 17.3548 24.7038 17.5459C24.2401 17.7371 23.7434 17.835 23.2419 17.8341Z" fill="url(#paint0_linear_53_123)" fill-opacity="0.3" stroke="url(#paint1_linear_53_123)" stroke-width="0.933333" stroke-linejoin="round"/>
</g>
</g>
</g>
<defs>
<linearGradient id="paint0_linear_53_123" x1="0.93335" y1="0.932861" x2="31.7738" y2="16.7808" gradientUnits="userSpaceOnUse">
<stop stop-color="#02B9CA"/>
<stop offset="1" stop-color="#0CC067"/>
</linearGradient>
<linearGradient id="paint1_linear_53_123" x1="0.93335" y1="0.932861" x2="31.7738" y2="16.7808" gradientUnits="userSpaceOnUse">
<stop stop-color="#02B9CA"/>
<stop offset="1" stop-color="#0CC067"/>
</linearGradient>
<clipPath id="clip0_53_123">
<rect width="28" height="28" fill="white"/>
</clipPath>
<clipPath id="clip1_53_123">
<rect width="28" height="28" fill="white"/>
</clipPath>
<clipPath id="clip2_53_123">
<rect width="28" height="28" fill="white"/>
</clipPath>
</defs>
</svg>
