<svg width="31" height="28" viewBox="0 0 31 28" fill="none" xmlns="http://www.w3.org/2000/svg">
<path d="M22.2462 0C27.5319 0 30.6516 3.04154 30.6516 8.24803H24.167V8.30115C21.1576 8.30115 18.7179 10.6797 18.7179 13.6139C18.7179 16.548 21.1576 18.9266 24.167 18.9266H30.6516V19.4048C30.6516 24.5449 27.5319 27.5864 22.2462 27.5864H8.40534C3.11965 27.5864 0 24.5449 0 19.4048V8.18162C0 3.04154 3.11965 0 8.40534 0H22.2462ZM29.5072 10.5325C30.1392 10.5325 30.6516 11.032 30.6516 11.6482V15.5265C30.6442 16.1397 30.1362 16.635 29.5072 16.6422H24.2897C22.7661 16.6621 21.4338 15.6451 21.0883 14.1983C20.9152 13.3002 21.1582 12.3734 21.752 11.6663C22.3458 10.9593 23.2298 10.5442 24.167 10.5325H29.5072ZM24.9027 12.3256H24.3986C24.0892 12.322 23.7911 12.4394 23.571 12.6515C23.3509 12.8636 23.2271 13.1528 23.2271 13.4545C23.227 14.0875 23.7494 14.6028 24.3986 14.61H24.9027C25.5497 14.61 26.0743 14.0986 26.0743 13.4678C26.0743 12.837 25.5497 12.3256 24.9027 12.3256ZM15.9116 5.96355H7.26101C6.61926 5.96351 6.0969 6.46686 6.08944 7.09251C6.08944 7.72553 6.61177 8.24075 7.26101 8.24803H15.9116C16.5586 8.24803 17.0831 7.73663 17.0831 7.10579C17.0831 6.47495 16.5586 5.96355 15.9116 5.96355Z" fill="url(#paint0_linear_44_6047)"/>
<defs>
<linearGradient id="paint0_linear_44_6047" x1="-2.68308e-08" y1="1.32627" x2="52.3027" y2="10.2018" gradientUnits="userSpaceOnUse">
<stop stop-color="#FF512F"/>
<stop offset="1" stop-color="#DD2476"/>
</linearGradient>
</defs>
</svg>
