<svg width="72" height="72" viewBox="0 0 72 72" fill="none" xmlns="http://www.w3.org/2000/svg">
<rect width="72" height="72" rx="16" fill="url(#paint0_linear_44_6213)" fill-opacity="0.08"/>
<path d="M36 55C41.0391 55 45.8718 52.9982 49.435 49.435C52.9982 45.8718 55 41.0391 55 36C55 30.9609 52.9982 26.1282 49.435 22.565C45.8718 19.0018 41.0391 17 36 17L36 36L36 55Z" fill="url(#paint1_linear_44_6213)"/>
<path d="M36 17C30.9609 17 26.1282 19.0018 22.565 22.565C19.0018 26.1282 17 30.9609 17 36C17 41.0391 19.0018 45.8718 22.565 49.435C26.1282 52.9982 30.9609 55 36 55L36 36V17Z" fill="url(#paint2_linear_44_6213)" fill-opacity="0.6"/>
<defs>
<linearGradient id="paint0_linear_44_6213" x1="-6.30251e-08" y1="3.46154" x2="123.515" y2="22.3255" gradientUnits="userSpaceOnUse">
<stop stop-color="#FF512F"/>
<stop offset="1" stop-color="#DD2476"/>
</linearGradient>
<linearGradient id="paint1_linear_44_6213" x1="55" y1="53.1731" x2="-10.1885" y2="43.2171" gradientUnits="userSpaceOnUse">
<stop stop-color="#FF512F"/>
<stop offset="1" stop-color="#DD2476"/>
</linearGradient>
<linearGradient id="paint2_linear_44_6213" x1="17" y1="18.8269" x2="82.1885" y2="28.7829" gradientUnits="userSpaceOnUse">
<stop stop-color="#FF512F"/>
<stop offset="1" stop-color="#DD2476"/>
</linearGradient>
</defs>
</svg>
