<svg width="25" height="25" viewBox="0 0 25 25" fill="none" xmlns="http://www.w3.org/2000/svg">
<path d="M12.5 0C19.3928 0 25 5.60722 25 12.5C25 19.3928 19.3928 25 12.5 25C5.60722 25 0 19.3928 0 12.5C0 5.60722 5.60722 0 12.5 0ZM18.8359 8.37793C18.4285 7.97052 17.7695 7.97052 17.3623 8.37793L11.3281 14.4121L8.67969 11.7627C8.2723 11.3553 7.61328 11.3554 7.20605 11.7627C6.79865 12.1699 6.79866 12.8291 7.20605 13.2363L10.5918 16.6211C10.7949 16.8242 11.0615 16.9268 11.3281 16.9268C11.5948 16.9268 11.8613 16.8242 12.0645 16.6211L18.8359 9.85059C19.2428 9.44325 19.2428 8.78508 18.8359 8.37793Z" fill="url(#paint0_linear_44_6009)"/>
<defs>
<linearGradient id="paint0_linear_44_6009" x1="-2.18837e-08" y1="1.20192" x2="42.8872" y2="7.75193" gradientUnits="userSpaceOnUse">
<stop stop-color="#FF512F"/>
<stop offset="1" stop-color="#DD2476"/>
</linearGradient>
</defs>
</svg>
