<svg width="68" height="68" viewBox="0 0 68 68" fill="none" xmlns="http://www.w3.org/2000/svg">
<rect width="68" height="68" rx="34" fill="url(#paint0_linear_44_6447)"/>
<path d="M40.0476 37.9805C39.8224 37.7544 39.5547 37.575 39.2599 37.4527C38.9652 37.3303 38.6492 37.2673 38.33 37.2673C38.0109 37.2673 37.6949 37.3303 37.4002 37.4527C37.1054 37.575 36.8377 37.7544 36.6125 37.9805L35.4405 39.1525C34.1209 38.315 32.8983 37.3337 31.7952 36.2265C30.688 35.1234 29.7067 33.9008 28.8692 32.5812L30.0412 31.4092C30.2673 31.1839 30.4466 30.9163 30.569 30.6215C30.6914 30.3268 30.7544 30.0108 30.7544 29.6916C30.7544 29.3725 30.6914 29.0565 30.569 28.7617C30.4466 28.467 30.2673 28.1993 30.0412 27.974L27.7538 25.6947C27.5317 25.4679 27.2663 25.2881 26.9733 25.1659C26.6803 25.0437 26.3658 24.9816 26.0483 24.9834C25.7286 24.9827 25.412 25.0451 25.1165 25.1672C24.821 25.2892 24.5526 25.4685 24.3267 25.6947L23.2275 26.7859C22.7035 27.3492 22.3125 28.0228 22.0831 28.7572C21.8537 29.4915 21.7918 30.2679 21.9019 31.0293C22.1605 34.0603 24.1489 37.7057 27.2122 40.7771C30.2756 43.8485 33.9613 45.8288 36.9924 46.1198C37.2185 46.1319 37.4452 46.1319 37.6713 46.1198C38.3238 46.1472 38.9751 46.044 39.5872 45.8164C40.1993 45.5888 40.7598 45.2413 41.2358 44.7942L42.327 43.695C42.5532 43.4691 42.7324 43.2006 42.8545 42.9052C42.9766 42.6097 43.039 42.293 43.0382 41.9733C43.04 41.6559 42.978 41.3414 42.8558 41.0484C42.7336 40.7554 42.5538 40.49 42.327 40.2679L40.0476 37.9805Z" fill="white"/>
<path d="M42.594 25.4199C41.4707 24.2924 40.1353 23.3983 38.6648 22.7893C37.1944 22.1803 35.6179 21.8684 34.0263 21.8716C33.8119 21.8716 33.6063 21.9568 33.4548 22.1083C33.3032 22.2599 33.218 22.4655 33.218 22.6799C33.218 22.8942 33.3032 23.0998 33.4548 23.2514C33.6063 23.403 33.8119 23.4882 34.0263 23.4882C35.4137 23.4881 36.7873 23.7628 38.068 24.2964C39.3487 24.83 40.511 25.612 41.4879 26.5971C42.4648 27.5823 43.2369 28.7511 43.7597 30.0362C44.2825 31.3214 44.5456 32.6973 44.5338 34.0846C44.5338 34.299 44.619 34.5046 44.7706 34.6562C44.9222 34.8077 45.1277 34.8929 45.3421 34.8929C45.5565 34.8929 45.7621 34.8077 45.9137 34.6562C46.0652 34.5046 46.1504 34.299 46.1504 34.0846C46.1659 32.4761 45.8592 30.8808 45.2484 29.3926C44.6376 27.9045 43.7351 26.5537 42.594 25.4199Z" fill="white"/>
<path d="M37.9944 30.0433C38.4531 30.4993 38.8159 31.0424 39.0616 31.6406C39.3073 32.2389 39.4309 32.8803 39.425 33.527C39.425 33.7414 39.5102 33.9469 39.6617 34.0985C39.8133 34.2501 40.0189 34.3353 40.2333 34.3353C40.4476 34.3353 40.6532 34.2501 40.8048 34.0985C40.9564 33.9469 41.0415 33.7414 41.0415 33.527C41.0522 32.6711 40.8929 31.8215 40.5727 31.0277C40.2526 30.2338 39.778 29.5114 39.1765 28.9024C38.575 28.2933 37.8585 27.8098 37.0687 27.4798C36.2788 27.1498 35.4314 26.9799 34.5754 26.98C34.361 26.98 34.1554 27.0651 34.0038 27.2167C33.8522 27.3683 33.7671 27.5739 33.7671 27.7883C33.7671 28.0026 33.8522 28.2082 34.0038 28.3598C34.1554 28.5114 34.361 28.5965 34.5754 28.5965C35.2123 28.6013 35.8421 28.7316 36.4288 28.9798C37.0154 29.2281 37.5474 29.5895 37.9944 30.0433Z" fill="white"/>
<defs>
<linearGradient id="paint0_linear_44_6447" x1="-5.95237e-08" y1="3.26923" x2="116.653" y2="21.0852" gradientUnits="userSpaceOnUse">
<stop stop-color="#FF512F"/>
<stop offset="1" stop-color="#DD2476"/>
</linearGradient>
</defs>
</svg>
