<svg width="68" height="68" viewBox="0 0 68 68" fill="none" xmlns="http://www.w3.org/2000/svg">
<rect width="68" height="68" rx="34" fill="url(#paint0_linear_44_6463)"/>
<path d="M34.0002 21.0156C28.6413 21.0156 24.2969 25.3601 24.2969 30.719C24.2969 36.386 30.2962 41.7115 32.8596 43.7283C33.5288 44.2545 34.4699 44.2545 35.1399 43.7283C37.7043 41.7106 43.7027 36.386 43.7027 30.719C43.7036 25.3592 39.3591 21.0156 34.0002 21.0156ZM34.0002 34.3061C31.9278 34.3061 30.2479 32.6262 30.2479 30.5538C30.2479 28.4813 31.9278 26.8014 34.0002 26.8014C36.0727 26.8014 37.7526 28.4813 37.7526 30.5538C37.7526 32.6262 36.0727 34.3061 34.0002 34.3061Z" fill="white"/>
<path d="M38.225 43.2964C37.4482 44.0064 36.7336 44.6004 36.1739 45.0412C35.5558 45.5257 34.7845 45.7939 34.0003 45.7939C33.216 45.7939 32.4448 45.5266 31.8276 45.0412C31.267 44.6004 30.5533 44.0064 29.7755 43.2964C27.5054 43.6491 25.9907 44.2737 25.9907 44.9893C25.9907 46.0909 29.5769 46.9847 34.0003 46.9847C38.4236 46.9847 42.0098 46.0918 42.0098 44.9893C42.0098 44.2737 40.4942 43.6481 38.225 43.2964Z" fill="white"/>
<defs>
<linearGradient id="paint0_linear_44_6463" x1="-5.95237e-08" y1="3.26923" x2="116.653" y2="21.0852" gradientUnits="userSpaceOnUse">
<stop stop-color="#FF512F"/>
<stop offset="1" stop-color="#DD2476"/>
</linearGradient>
</defs>
</svg>
