<svg width="68" height="68" viewBox="0 0 68 68" fill="none" xmlns="http://www.w3.org/2000/svg">
<rect width="68" height="68" rx="34" fill="url(#paint0_linear_44_6457)"/>
<path fill-rule="evenodd" clip-rule="evenodd" d="M23.4782 25.4128L31.0129 32.9508C32.6562 34.591 35.3425 34.5924 36.9873 32.9508L44.522 25.4128C44.5979 25.3369 44.5868 25.212 44.4988 25.1506C43.7303 24.6146 42.7953 24.2969 41.788 24.2969H26.2122C25.2049 24.2969 24.2699 24.6147 23.5014 25.1506C23.4133 25.212 23.4023 25.3369 23.4782 25.4128ZM21.4646 29.0444C21.4646 28.2523 21.661 27.504 22.0069 26.8462C22.061 26.7433 22.1981 26.7225 22.2803 26.8047L29.7196 34.2441C32.0755 36.6033 35.9233 36.6047 38.2806 34.2441L45.7199 26.8047C45.8021 26.7225 45.9392 26.7433 45.9933 26.8462C46.3392 27.504 46.5356 28.2524 46.5356 29.0444V38.9551C46.5356 41.5749 44.4046 43.7027 41.788 43.7027H26.2122C23.5957 43.7027 21.4646 41.5749 21.4646 38.9551V29.0444Z" fill="white"/>
<defs>
<linearGradient id="paint0_linear_44_6457" x1="-5.95237e-08" y1="3.26923" x2="116.653" y2="21.0852" gradientUnits="userSpaceOnUse">
<stop stop-color="#FF512F"/>
<stop offset="1" stop-color="#DD2476"/>
</linearGradient>
</defs>
</svg>
