<svg width="53" height="50" viewBox="0 0 53 50" fill="none" xmlns="http://www.w3.org/2000/svg">
<path d="M22.9998 0C24.3171 8.83059e-05 25.5344 0.714872 26.1931 1.87402L26.4265 2.28418L26.6599 1.87402C27.292 0.761562 28.4383 0.0596719 29.6941 0.00488281C29.6451 0.00289153 29.596 0.000980279 29.5466 0.000976562L36.6238 0C36.6328 1.60671e-05 36.6421 0.000908642 36.6511 0.000976562H36.9304C36.881 0.000976562 36.8312 0.00287962 36.782 0.00488281C36.7905 0.00525262 36.7989 0.00640718 36.8074 0.00683594C36.863 0.00964843 36.9183 0.0132259 36.9734 0.0185547C36.9953 0.0206666 37.0171 0.022888 37.0388 0.0253906C37.0632 0.0281993 37.0878 0.0299059 37.1121 0.0332031L37.2468 0.0556641C37.253 0.0567381 37.2592 0.0574883 37.2654 0.0585938C37.3257 0.0694278 37.3856 0.0818838 37.4451 0.0957031C37.4634 0.0999536 37.4815 0.104845 37.4998 0.109375C37.5539 0.122836 37.6076 0.137426 37.6609 0.15332C37.6861 0.16082 37.7111 0.168723 37.7361 0.176758C37.7859 0.192799 37.8355 0.209395 37.8845 0.227539C37.9065 0.235655 37.9282 0.244398 37.95 0.25293C38.0019 0.273295 38.0533 0.294681 38.1043 0.317383C38.1229 0.325684 38.1414 0.334164 38.1599 0.342773C38.213 0.367512 38.2653 0.39365 38.3172 0.420898C38.3306 0.427944 38.3439 0.435172 38.3572 0.442383C38.4126 0.472392 38.4674 0.503296 38.5213 0.536133C38.5251 0.538486 38.5291 0.540601 38.533 0.542969L38.6697 0.630859C38.6776 0.636231 38.6852 0.642026 38.6931 0.647461C38.7308 0.673378 38.7678 0.700206 38.8045 0.727539C38.8313 0.747536 38.8582 0.767343 38.8845 0.788086C38.9219 0.817527 38.9576 0.84896 38.9939 0.879883C39.0173 0.899816 39.0413 0.918915 39.0642 0.939453C39.0959 0.967868 39.1262 0.997785 39.157 1.02734C39.185 1.05429 39.2138 1.08052 39.241 1.1084C39.2715 1.13967 39.3003 1.17265 39.3298 1.20508C39.3523 1.22977 39.3754 1.25394 39.3972 1.2793C39.431 1.31851 39.4626 1.35963 39.4949 1.40039C39.513 1.42325 39.532 1.44541 39.5496 1.46875C39.6463 1.59699 39.7364 1.73189 39.8172 1.87402L51.8933 23.127C52.5518 24.2861 52.5517 25.7139 51.8933 26.873L39.8172 48.127C39.1842 49.2409 38.0349 49.942 36.7771 49.9951C36.8279 49.9973 36.8793 50 36.9304 50H29.5466C29.5979 50 29.6491 49.9973 29.7 49.9951C28.442 49.9422 27.293 49.241 26.6599 48.127L26.4255 47.7158L26.1931 48.127C25.5346 49.2858 24.3177 49.9997 23.0007 50H15.7634C14.4461 50 13.2287 49.2851 12.5701 48.126L0.493908 26.873C-0.164667 25.7139 -0.164605 24.2861 0.493908 23.127L12.5701 1.87305C13.2287 0.713965 14.4461 2.04012e-06 15.7634 0H22.9998ZM7.57106 23.127C6.91254 24.2861 6.91248 25.7139 7.57106 26.873L19.3816 47.6582L22.8875 41.4883L14.5828 26.874C13.9242 25.7148 13.9242 24.2862 14.5828 23.127L22.8875 8.51172L19.3806 2.34082L7.57106 23.127ZM29.9646 8.51074L38.2703 23.127C38.9287 24.286 38.9286 25.714 38.2703 26.873L29.9646 41.4883L33.238 47.249L44.8162 26.873C45.4746 25.7139 45.4747 24.2861 44.8162 23.127L33.238 2.75L29.9646 8.51074ZM21.6599 23.127C21.0016 24.286 21.0016 25.714 21.6599 26.873L26.4255 35.2607L31.1931 26.873C31.8514 25.714 31.8515 24.286 31.1931 23.127L26.4255 14.7383L21.6599 23.127Z" fill="url(#paint0_linear_44_5903)"/>
<defs>
<linearGradient id="paint0_linear_44_5903" x1="-0.000477126" y1="2.40385" x2="89.6693" y2="16.7526" gradientUnits="userSpaceOnUse">
<stop stop-color="#FF512F"/>
<stop offset="1" stop-color="#DD2476"/>
</linearGradient>
</defs>
</svg>
