<svg width="53" height="50" viewBox="0 0 53 50" fill="none" xmlns="http://www.w3.org/2000/svg">
<path d="M22.9998 0C24.3171 0 25.5343 0.7148 26.1931 1.87402L26.4265 2.28418L26.6599 1.87402C27.2937 0.758408 28.4449 0.0562182 29.7048 0.00488281C29.6523 0.00259481 29.5996 8.58195e-07 29.5466 0H36.6238C36.6329 1.52042e-07 36.642 0.00090803 36.6511 0.000976562H36.9304C36.8809 0.000976562 36.8312 0.00287595 36.782 0.00488281C38.0378 0.059557 39.185 0.761391 39.8171 1.87402L51.8933 23.127C52.5519 24.2861 52.5518 25.7139 51.8933 26.873L39.8171 48.127C39.1842 49.241 38.035 49.9421 36.7771 49.9951C36.828 49.9973 36.8792 50 36.9304 50H29.5466C29.5979 50 29.649 49.9973 29.7 49.9951C28.442 49.9422 27.2929 49.241 26.6599 48.127L26.4255 47.7158L26.1931 48.127C25.5345 49.2858 24.3178 49.9998 23.0007 50H15.7634C14.446 50 13.2287 49.2852 12.5701 48.126L0.493896 26.873C-0.164678 25.7139 -0.164616 24.2861 0.493896 23.127L12.5701 1.87305C13.2287 0.713903 14.4461 2.04018e-06 15.7634 0H22.9998ZM7.57104 23.127C6.91253 24.2861 6.91247 25.7139 7.57104 26.873L19.3816 47.6582L22.8875 41.4883L14.5828 26.874C13.9242 25.7148 13.9242 24.2862 14.5828 23.127L22.8875 8.51172L19.3806 2.34082L7.57104 23.127ZM29.9646 8.51074L38.2703 23.127C38.9288 24.286 38.9286 25.7139 38.2703 26.873L29.9646 41.4883L33.238 47.249L44.8162 26.873C45.4746 25.7139 45.4747 24.2861 44.8162 23.127L33.238 2.75L29.9646 8.51074ZM21.6599 23.127C21.0016 24.286 21.0015 25.714 21.6599 26.873L26.4255 35.2607L31.1931 26.873C31.8515 25.7139 31.8516 24.286 31.1931 23.127L26.4255 14.7383L21.6599 23.127Z" fill="url(#paint0_linear_53_16)"/>
<defs>
<linearGradient id="paint0_linear_53_16" x1="2.16291" y1="27.6316" x2="48.0697" y2="38.3326" gradientUnits="userSpaceOnUse">
<stop stop-color="#02B9CA"/>
<stop offset="1" stop-color="#0CC067"/>
</linearGradient>
</defs>
</svg>
